<svg xmlns="http://www.w3.org/2000/svg" viewBox="0 0 600 400" width="600" height="400" role="img" aria-label="Web Application built with PHP and Symfony">
  <defs>
    <linearGradient id="sfBg" x1="0" y1="0" x2="1" y2="1">
      <stop offset="0" stop-color="#0f172a"/>
      <stop offset="1" stop-color="#0a0e17"/>
    </linearGradient>
    <linearGradient id="sfAccent" x1="0" y1="0" x2="1" y2="0">
      <stop offset="0" stop-color="#a855f7"/>
      <stop offset="1" stop-color="#06b6d4"/>
    </linearGradient>
  </defs>
  <rect width="600" height="400" fill="url(#sfBg)"/>
  <!-- browser chrome -->
  <rect x="40" y="50" width="520" height="300" rx="12" fill="#111827" stroke="#1e293b" stroke-width="2"/>
  <rect x="40" y="50" width="520" height="40" rx="12" fill="#0a0e17"/>
  <circle cx="66" cy="70" r="5" fill="#ef4444"/>
  <circle cx="84" cy="70" r="5" fill="#f59e0b"/>
  <circle cx="102" cy="70" r="5" fill="#22c55e"/>
  <rect x="128" y="60" width="412" height="20" rx="10" fill="#0f172a"/>
  <text x="142" y="74" font-family="monospace" font-size="11" fill="#64748b">https://app.example.com/dashboard</text>
  <rect x="40" y="84" width="520" height="6" fill="#0a0e17"/>
  <!-- hero band -->
  <rect x="56" y="104" width="488" height="70" rx="8" fill="url(#sfAccent)" opacity="0.15"/>
  <rect x="72" y="120" width="180" height="14" rx="4" fill="#06b6d4"/>
  <rect x="72" y="144" width="120" height="8" rx="4" fill="#64748b"/>
  <rect x="430" y="120" width="100" height="34" rx="17" fill="url(#sfAccent)"/>
  <text x="480" y="142" font-family="monospace" font-size="11" font-weight="700" fill="#0a0e17" text-anchor="middle">New</text>
  <!-- cards -->
  <g>
    <rect x="56" y="190" width="156" height="100" rx="8" fill="#0f172a" stroke="#1e293b"/>
    <rect x="72" y="206" width="40" height="40" rx="8" fill="rgba(168,85,247,0.18)"/>
    <circle cx="92" cy="226" r="10" fill="#a855f7"/>
    <rect x="72" y="258" width="120" height="10" rx="3" fill="#334155"/>
    <rect x="72" y="274" width="80" height="7" rx="3" fill="#1e293b"/>
  </g>
  <g>
    <rect x="222" y="190" width="156" height="100" rx="8" fill="#0f172a" stroke="#1e293b"/>
    <rect x="238" y="206" width="40" height="40" rx="8" fill="rgba(6,182,212,0.18)"/>
    <circle cx="258" cy="226" r="10" fill="#06b6d4"/>
    <rect x="238" y="258" width="120" height="10" rx="3" fill="#334155"/>
    <rect x="238" y="274" width="80" height="7" rx="3" fill="#1e293b"/>
  </g>
  <g>
    <rect x="388" y="190" width="156" height="100" rx="8" fill="#0f172a" stroke="#1e293b"/>
    <rect x="404" y="206" width="40" height="40" rx="8" fill="rgba(34,197,94,0.18)"/>
    <circle cx="424" cy="226" r="10" fill="#22c55e"/>
    <rect x="404" y="258" width="120" height="10" rx="3" fill="#334155"/>
    <rect x="404" y="274" width="80" height="7" rx="3" fill="#1e293b"/>
  </g>
  <!-- tech badge -->
  <rect x="48" y="362" width="110" height="24" rx="12" fill="#0a0e17" stroke="#a855f7" stroke-width="1.5"/>
  <text x="103" y="378" font-family="monospace" font-size="11" font-weight="700" fill="#a855f7" text-anchor="middle">PHP / Symfony</text>
</svg>
