<svg xmlns="http://www.w3.org/2000/svg" viewBox="0 0 600 400" width="600" height="400" role="img" aria-label="C++ application project focused on OOP and memory management">
  <defs>
    <linearGradient id="cppBg" x1="0" y1="0" x2="1" y2="1">
      <stop offset="0" stop-color="#0f172a"/>
      <stop offset="1" stop-color="#0a0e17"/>
    </linearGradient>
  </defs>
  <rect width="600" height="400" fill="url(#cppBg)"/>
  <!-- terminal window -->
  <rect x="40" y="50" width="520" height="300" rx="12" fill="#0a0e17" stroke="#1e293b" stroke-width="2"/>
  <rect x="40" y="50" width="520" height="36" rx="12" fill="#111827"/>
  <circle cx="66" cy="68" r="5" fill="#ef4444"/>
  <circle cx="84" cy="68" r="5" fill="#f59e0b"/>
  <circle cx="102" cy="68" r="5" fill="#22c55e"/>
  <text x="300" y="73" font-family="monospace" font-size="12" fill="#64748b" text-anchor="middle">bash — 80x24</text>
  <rect x="40" y="80" width="520" height="6" fill="#111827"/>
  <!-- code lines -->
  <g font-family="monospace" font-size="13">
    <text x="62" y="118" fill="#64748b">1</text><text x="86" y="118" fill="#c084fc">class</text><text x="128" y="118" fill="#06b6d4">Shape</text><text x="172" y="118" fill="#94a3b8">{</text>
    <text x="62" y="142" fill="#64748b">2</text><text x="100" y="142" fill="#c084fc">public</text><text x="152" y="142" fill="3a">:</text>
    <text x="62" y="166" fill="#64748b">3</text><text x="114" y="166" fill="#c084fc">virtual</text><text x="172" y="166" fill="#22d3ee">double</text><text x="222" y="166" fill="#e2e8f0">area()</text><text x="272" y="166" fill="#c084fc">const</text><text x="318" y="166" fill="#94a3b8">=</text><text x="332" y="166" fill="#94a3b8">0;</text>
    <text x="62" y="190" fill="#64748b">4</text><text x="114" y="190" fill="#c084fc">virtual</text><text x="172" y="190" fill="#22d3ee">~Shape</text><text x="220" y="190" fill="#e2e8f0">()</text><text x="240" y="190" fill="#94a3b8">=</text><text x="254" y="190" fill="#c084fc">default</text><text x="298" y="190" fill="#94a3b8">;</text>
    <text x="62" y="214" fill="#64748b">5</text><text x="86" y="214" fill="#94a3b8">};</text>
    <text x="62" y="246" fill="#64748b">7</text><text x="86" y="246" fill="#c084fc">template</text><text x="146" y="246" fill="#94a3b8">&lt;</text><text x="156" y="246" fill="#c084fc">typename</text><text x="220" y="246" fill="#e2e8f0">T</text><text x="232" y="246" fill="#94a3b8">&gt;</text>
    <text x="62" y="270" fill="#64748b">8</text><text x="86" y="270" fill="#c084fc">class</text><text x="128" y="270" fill="#06b6d4">Stack</text><text x="176" y="270" fill="#94a3b8">{</text><text x="186" y="270" fill="#64748b">/* RAII */</text><text x="262" y="270" fill="#94a3b8">};</text>
    <text x="62" y="302" fill="#64748b">10</text><text x="100" y="302" fill="#22c55e">▸ build complete</text><text x="216" y="302" fill="#64748b">— 0 errors, 0 warnings</text>
    <text x="100" y="326" fill="#06b6d4">$</text><rect x="112" y="314" width="9" height="15" fill="#06b6d4"><animate attributeName="opacity" values="1;0;1" dur="1s" repeatCount="indefinite"/></rect>
  </g>
  <!-- tech badge -->
  <rect x="48" y="362" width="62" height="24" rx="12" fill="#0a0e17" stroke="#06b6d4" stroke-width="1.5"/>
  <text x="79" y="378" font-family="monospace" font-size="11" font-weight="700" fill="#06b6d4" text-anchor="middle">C++</text>
</svg>
